# xmcd
#
# Track frame offsets: 
#        150
#        2986
#        17622
#        46667
#        67503
#        119057
#        132529
#        170394
#        217448
#        279089
#        288717
#
# Disc length: 4046 seconds
#
# Revision: 0
# Processed by: cddbd v1.5.2PL0 Copyright (c) Steve Scherf et al.
# Submitted via: ExactAudioCopy v0.99pb5
#
DISCID=a10fcc0b
DTITLE=Led Zeppelin - Maxell is Pleased to Present: The Complete BBC S
DTITLE=essions Disc 2
DYEAR=2006
DGENRE=Blues
TTITLE0=01. Alan Black Introduction (06-27-69 BBC Rock Hour)
TTITLE1=02. Communication Breakdown [incl. It's Your Thing] (06-27-69 
TTITLE1=BBC Rock Hour)
TTITLE2=03. I Can't Quit You Baby (06-27-69 BBC Rock Hour)
TTITLE3=04. Interview with Alan Black (06-27-69 BBC Rock Hour)
TTITLE4=05. Dazed and Confused (06-27-69 BBC Rock Hour)
TTITLE5=06. Interlude with The Liverpool Scene (06-27-69 BBC Rock Hour
TTITLE5=)
TTITLE6=07. White Summer - Black Mountain Side (06-27-69 BBC Rock Hour
TTITLE6=)
TTITLE7=08. You Shook Me (06-27-69 BBC Rock Hour)
TTITLE8=09. How Many More Times [incl. The Hunter, The Lemon Song] (06
TTITLE8=27-69 BBC Rock Hour)
TTITLE9=10. Julie Felix Introduction - White Summer (04-23-70 Julie Fe
TTITLE9=lix Show)
TTITLE10=11. Black Mountain Side (04-23-70 Julie Felix Show)
EXTD=
EXTT0=
EXTT1=
EXTT2=
EXTT3=
EXTT4=
EXTT5=
EXTT6=
EXTT7=
EXTT8=
EXTT9=
EXTT10=
PLAYORDER=
